<?xml version="1.0" encoding="UTF-8"?>
<svg width="88px" height="45px" viewBox="0 0 88 45" version="1.1" xmlns="http://www.w3.org/2000/svg" xmlns:xlink="http://www.w3.org/1999/xlink">
    <!-- Generator: Sketch 53.1 (72631) - https://sketchapp.com -->
    <title>lemon-slice</title>
    <desc>Created with Sketch.</desc>
    <g id="Page-1" stroke="none" stroke-width="1" fill="none" fill-rule="evenodd">
        <g id="sign-up" transform="translate(-143.000000, -155.000000)" fill-rule="nonzero">
            <g id="lemon-slice" transform="translate(187.033009, 190.033009) rotate(225.000000) translate(-187.033009, -190.033009) translate(149.533009, 152.533009)">
                <path d="M62.1320801,0 L55.917334,6.21474609 L55.917334,55.9171875 L62.1320801,62.1319336 C79.2893555,44.9748047 79.2893555,17.1572754 62.1320801,0 Z" id="Path" fill="#7CC02C"></path>
                <path d="M0,62.1320801 C17.1572754,79.2893555 44.9748047,79.2893555 62.1320801,62.1320801 L55.917334,55.917334 L6.21503906,55.9171875 L0,62.1320801 Z" id="Path" fill="#9DD44C"></path>
                <path d="M6.21489258,55.9171875 C13.0772461,62.7796875 22.0716797,66.2109375 31.0659668,66.2109375 L37.2807129,59.9961914 L31.0659668,31.0661133 L6.21489258,55.9171875 Z" id="Path" fill="#DEEA98"></path>
                <path d="M31.0659668,31.0659668 L59.9960449,37.2807129 L66.2109375,31.0659668 C66.2109375,22.0716797 62.7796875,13.0772461 55.9171875,6.21474609 L31.0659668,31.0659668 Z" id="Path" fill="#BDE86B"></path>
                <path d="M55.9171875,55.9171875 C62.7796875,49.0546875 66.2109375,40.0604004 66.2109375,31.0659668 L31.0661133,31.0659668 L40.3842773,46.5990234 L55.9171875,55.9171875 Z" id="Path" fill="#DEEA98"></path>
                <path d="M31.0659668,66.2109375 C40.0604004,66.2109375 49.0546875,62.7796875 55.9171875,55.9171875 L31.0659668,31.0659668 L31.0659668,66.2109375 Z" id="Path" fill="#FFFFFF"></path>
            </g>
        </g>
    </g>
</svg>